<?xml version="1.0" encoding="UTF-8" standalone="no"?>
<svg
   xmlns:dc="http://purl.org/dc/elements/1.1/"
   xmlns:cc="http://creativecommons.org/ns#"
   xmlns:rdf="http://www.w3.org/1999/02/22-rdf-syntax-ns#"
   xmlns:svg="http://www.w3.org/2000/svg"
   xmlns="http://www.w3.org/2000/svg"
   version="1.1"
   id="svg3606"
   height="2000"
   width="2000">
  <metadata
     id="metadata3614">
    <rdf:RDF>
      <cc:Work
         rdf:about="">
        <dc:format>image/svg+xml</dc:format>
        <dc:type
           rdf:resource="http://purl.org/dc/dcmitype/StillImage" />
        <dc:title></dc:title>
      </cc:Work>
    </rdf:RDF>
  </metadata>
  <defs
     id="defs3612" />
  <path
     id="rect3608"
     d="M 405.1582 512.53125 C 292.26411 512.53125 191.28314 570.99298 121.39844 659.88672 C 51.513728 748.78046 10.267578 868.57256 10.267578 1000 C 10.267578 1131.4274 51.513728 1251.2195 121.39844 1340.1133 C 191.28314 1429.007 292.26411 1487.4688 405.1582 1487.4688 L 1594.8418 1487.4688 C 1707.7359 1487.4688 1808.7169 1429.007 1878.6016 1340.1133 C 1948.4863 1251.2195 1989.7324 1131.4274 1989.7324 1000 C 1989.7324 868.57256 1948.4863 748.78046 1878.6016 659.88672 C 1808.7169 570.99298 1707.7359 512.53125 1594.8418 512.53125 L 405.1582 512.53125 z M 405.1582 621.60938 L 1594.8418 621.60938 C 1670.5027 621.60938 1739.6971 659.6905 1792.8496 727.30078 C 1846.0021 794.91107 1880.6543 891.58448 1880.6543 1000 C 1880.6543 1108.4155 1846.0021 1205.0889 1792.8496 1272.6992 C 1739.6971 1340.3095 1670.5027 1378.3906 1594.8418 1378.3906 L 405.1582 1378.3906 C 329.49735 1378.3906 260.30289 1340.3095 207.15039 1272.6992 C 153.99789 1205.0889 119.3457 1108.4155 119.3457 1000 C 119.3457 891.58448 153.99789 794.91107 207.15039 727.30078 C 260.30289 659.6905 329.49735 621.60936 405.1582 621.60938 z "
     style="color:#000000;font-style:normal;font-variant:normal;font-weight:normal;font-stretch:normal;font-size:medium;line-height:normal;font-family:sans-serif;text-indent:0;text-align:start;text-decoration:none;text-decoration-line:none;text-decoration-style:solid;text-decoration-color:#000000;letter-spacing:normal;word-spacing:normal;text-transform:none;direction:ltr;block-progression:tb;writing-mode:lr-tb;baseline-shift:baseline;text-anchor:start;white-space:normal;clip-rule:nonzero;display:inline;overflow:visible;visibility:visible;opacity:1;isolation:auto;mix-blend-mode:normal;color-interpolation:sRGB;color-interpolation-filters:linearRGB;solid-color:#000000;solid-opacity:1;fill:#000000;fill-opacity:1;fill-rule:nonzero;stroke:none;stroke-width:109.07819366;stroke-linecap:butt;stroke-linejoin:miter;stroke-miterlimit:4;stroke-dasharray:none;stroke-dashoffset:0;stroke-opacity:1;color-rendering:auto;image-rendering:auto;shape-rendering:auto;text-rendering:auto;enable-background:accumulate" />
</svg>
