<?xml version="1.0" encoding="UTF-8" standalone="no"?>
<svg
   xmlns:dc="http://purl.org/dc/elements/1.1/"
   xmlns:cc="http://creativecommons.org/ns#"
   xmlns:rdf="http://www.w3.org/1999/02/22-rdf-syntax-ns#"
   xmlns:svg="http://www.w3.org/2000/svg"
   xmlns="http://www.w3.org/2000/svg"
   version="1.1"
   id="svg5118"
   height="2000"
   width="2000"
   viewBox="0 0 2000 2000">
  <metadata
     id="metadata5125">
    <rdf:RDF>
      <cc:Work
         rdf:about="">
        <dc:format>image/svg+xml</dc:format>
        <dc:type
           rdf:resource="http://purl.org/dc/dcmitype/StillImage" />
        <dc:title></dc:title>
      </cc:Work>
    </rdf:RDF>
  </metadata>
  <defs
     id="defs5123" />
  <path
     id="path3396"
     d="M 25.275391 356.82812 L 25.275391 404.24023 L 25.275391 1476.3281 L 46.498047 1490.3574 C 339.62662 1684.137 591.48211 1664.87 802.49609 1589.6133 C 1013.5101 1514.3565 1190.3017 1392.3104 1350.7031 1370.9805 L 1351.9727 1370.8125 L 1353.2324 1370.5742 C 1571.0531 1329.5096 1699.3334 1397.3336 1909.1523 1485.0762 L 1974.7246 1512.498 L 1974.7246 745 L 1974.7246 360.80664 L 25.275391 356.82812 z M 119.91016 451.6543 L 1880.0898 455.24609 L 1880.0898 745 L 1880.0898 1370.1074 C 1703.9991 1295.7578 1553.7223 1236.801 1336.8359 1277.3828 C 1141.9681 1303.7906 965.20588 1431.1118 770.70703 1500.4785 C 580.87326 1568.1815 380.38985 1589.3019 119.91016 1425.0605 L 119.91016 451.6543 z "
     style="color:#000000;font-style:normal;font-variant:normal;font-weight:normal;font-stretch:normal;font-size:medium;line-height:normal;font-family:sans-serif;text-indent:0;text-align:start;text-decoration:none;text-decoration-line:none;text-decoration-style:solid;text-decoration-color:#000000;letter-spacing:normal;word-spacing:normal;text-transform:none;direction:ltr;block-progression:tb;writing-mode:lr-tb;baseline-shift:baseline;text-anchor:start;white-space:normal;clip-rule:nonzero;display:inline;overflow:visible;visibility:visible;opacity:1;isolation:auto;mix-blend-mode:normal;color-interpolation:sRGB;color-interpolation-filters:linearRGB;solid-color:#000000;solid-opacity:1;fill:#000000;fill-opacity:1;fill-rule:nonzero;stroke:none;stroke-width:94.63341522;stroke-linecap:butt;stroke-linejoin:miter;stroke-miterlimit:4;stroke-dasharray:none;stroke-dashoffset:0;stroke-opacity:1;color-rendering:auto;image-rendering:auto;shape-rendering:auto;text-rendering:auto;enable-background:accumulate" />
</svg>
